<svg width="14" height="15" viewBox="0 0 14 15" fill="none" xmlns="http://www.w3.org/2000/svg">
<path d="M13.6861 11.8382L11.5241 9.52313C11.0934 9.06391 10.3803 9.07786 9.93461 9.55516L8.84534 10.7211C8.77652 10.6805 8.70529 10.6381 8.6304 10.5931C7.94254 10.185 7.00109 9.62574 6.0104 8.56431C5.01678 7.50064 4.49391 6.49114 4.11161 5.75422C4.07127 5.67614 4.03261 5.60087 3.99445 5.52939L4.7255 4.74786L5.08492 4.36258C5.53125 3.8846 5.54356 3.12128 5.11392 2.66073L2.95184 0.345422C2.52219 -0.114479 1.80871 -0.100527 1.36238 0.37746L0.753032 1.03359L0.769684 1.05129C0.565361 1.33042 0.394623 1.65235 0.267564 1.99952C0.150441 2.32997 0.0775199 2.64532 0.0441767 2.96131C-0.241312 5.49524 0.840231 7.81107 3.7754 10.9536C7.8327 15.2972 11.1023 14.969 11.2434 14.953C11.5506 14.9137 11.845 14.8351 12.1442 14.7107C12.4657 14.5763 12.7662 14.3937 13.0267 14.1754L13.04 14.1881L13.6573 13.5409C14.1028 13.063 14.1156 12.2995 13.6861 11.8382Z" fill="#27300f"/>
</svg>