<?xml version="1.0" standalone="no"?>
<!DOCTYPE svg PUBLIC "-//W3C//DTD SVG 20010904//EN"
 "http://www.w3.org/TR/2001/REC-SVG-20010904/DTD/svg10.dtd">
<svg version="1.0" xmlns="http://www.w3.org/2000/svg"
 width="260.000000pt" height="260.000000pt" viewBox="0 0 260.000000 260.000000"
 preserveAspectRatio="xMidYMid meet">
<metadata>
Created by potrace 1.14, written by Peter Selinger 2001-2017
</metadata>
<g transform="translate(0.000000,260.000000) scale(0.100000,-0.100000)"
fill="#000000" stroke="none">
<path d="M2160 2090 c0 -5 -10 -10 -22 -10 -26 0 -98 -31 -98 -42 0 -4 -5 -8
-10 -8 -6 0 -22 -11 -35 -25 -14 -13 -25 -29 -25 -35 0 -5 -4 -10 -10 -10 -5
0 -12 -11 -16 -25 -3 -14 -10 -25 -15 -25 -5 0 -9 -10 -9 -23 0 -13 -4 -27
-10 -33 -5 -5 -11 -103 -12 -229 l-3 -220 -55 -5 -55 -5 -3 -114 c-3 -130 -3
-131 71 -131 l47 0 0 -339 c0 -300 2 -340 16 -345 23 -9 247 -7 261 2 10 6 13
90 15 343 l3 334 113 3 112 3 0 124 0 124 -112 3 -113 3 -3 165 c-3 196 6 226
77 251 32 11 101 -4 101 -22 0 -14 20 -11 36 5 8 8 14 19 14 25 0 6 5 11 10
11 6 0 10 7 10 15 0 9 12 34 26 57 33 51 36 96 9 112 -10 6 -36 21 -57 34 -21
12 -49 22 -63 22 -14 0 -25 5 -25 10 0 6 -35 10 -85 10 -50 0 -85 -4 -85 -10z"/>
<path d="M200 1245 l0 -795 190 0 190 0 0 330 0 330 23 5 c12 3 166 4 342 3
l320 -3 3 -332 2 -333 190 0 190 0 -2 793 -3 792 -165 3 c-91 1 -175 0 -187
-3 l-23 -5 0 -285 0 -285 -345 0 -345 0 0 290 0 290 -190 0 -190 0 0 -795z"/>
</g>
</svg>
